<svg xmlns="http://www.w3.org/2000/svg" version="1.1" xmlns:xlink="http://www.w3.org/1999/xlink" width="200" height="200"><svg xmlns="http://www.w3.org/2000/svg" version="1.1" xmlns:xlink="http://www.w3.org/1999/xlink" width="200" height="200"><svg xmlns="http://www.w3.org/2000/svg" version="1.1" xmlns:xlink="http://www.w3.org/1999/xlink" viewBox="0 0 200 200"><rect width="200" height="200" fill="url('#gradient')"></rect><defs><linearGradient id="gradient" gradientTransform="rotate(284 0.5 0.5)"><stop offset="0%" stop-color="#7dabaa"></stop><stop offset="100%" stop-color="#f5e8ce"></stop></linearGradient></defs><g><g fill="#2c1f37" transform="matrix(3.9664299548095547,0,0,3.9664299548095547,5.738144436138072,124.37617436772858)" stroke="#000000" stroke-width="0"><path d="M1.07-14.22L5.58-14.22L8.75-4.33L11.91-14.22L16.43-14.22L16.43 0L12.99 0L12.99-3.32L13.32-10.12L9.88 0L7.62 0L4.17-10.13L4.50-3.32L4.50 0L1.07 0L1.07-14.22ZM21.92-10.57L21.92 0L18.62 0L18.62-10.57L21.92-10.57ZM18.43-13.29L18.43-13.29Q18.43-13.99 18.94-14.44Q19.44-14.89 20.25-14.89Q21.06-14.89 21.57-14.44Q22.08-13.99 22.08-13.29Q22.08-12.59 21.57-12.14Q21.06-11.69 20.25-11.69Q19.44-11.69 18.94-12.14Q18.43-12.59 18.43-13.29ZM26.75-10.57L28.23-7.66L29.77-10.57L33.18-10.57L30.40-5.42L33.32 0L29.88 0L28.22-3.13L26.59 0L23.13 0L26.06-5.42L23.29-10.57L26.75-10.57ZM46.46-7.47L46.46-6.82Q46.46-4.84 45.80-3.37Q45.15-1.90 43.99-1.02L43.99-1.02L46.29 0.80L44.17 2.60L41.11 0.14Q40.68 0.20 40.25 0.20L40.25 0.20Q38.44 0.20 37.03-0.64Q35.63-1.48 34.84-3.05Q34.05-4.61 34.02-6.64L34.02-6.64L34.02-7.39Q34.02-9.49 34.79-11.08Q35.56-12.68 36.98-13.54Q38.40-14.41 40.23-14.41L40.23-14.41Q42.04-14.41 43.46-13.55Q44.87-12.70 45.66-11.11Q46.45-9.52 46.46-7.47L46.46-7.47ZM42.97-6.76L42.97-7.41Q42.97-9.53 42.26-10.63Q41.55-11.73 40.23-11.73L40.23-11.73Q38.88-11.73 38.19-10.64Q37.51-9.56 37.50-7.47L37.50-7.47L37.50-6.82Q37.50-4.72 38.19-3.60Q38.89-2.48 40.25-2.48L40.25-2.48Q41.56-2.48 42.26-3.58Q42.96-4.69 42.97-6.76L42.97-6.76Z"></path></g></g></svg></svg><style>@media (prefers-color-scheme: light) { :root { filter: none; } }
@media (prefers-color-scheme: dark) { :root { filter: none; } }
</style></svg>